<mxfile host="app.diagrams.net" modified="2021-01-14T12:40:03.234Z" agent="5.0 (Macintosh; Intel Mac OS X 10_15_7) AppleWebKit/537.36 (KHTML, like Gecko) Chrome/87.0.4280.141 Safari/537.36" etag="vztejvRiWqhQbq1RhTrP" version="14.2.2" type="github">
  <diagram id="-fE78IQ02eIkd79Tjuz1" name="第 1 页">
    <mxGraphModel dx="946" dy="542" grid="1" gridSize="10" guides="1" tooltips="1" connect="1" arrows="1" fold="1" page="1" pageScale="1" pageWidth="827" pageHeight="1169" math="0" shadow="0">
      <root>
        <mxCell id="0" />
        <mxCell id="1" parent="0" />
        <mxCell id="vAvGuLPLiPGB45BX3toF-5" style="edgeStyle=orthogonalEdgeStyle;rounded=0;orthogonalLoop=1;jettySize=auto;html=1;exitX=1;exitY=0.5;exitDx=0;exitDy=0;entryX=0;entryY=0.5;entryDx=0;entryDy=0;" edge="1" parent="1" source="vAvGuLPLiPGB45BX3toF-1" target="vAvGuLPLiPGB45BX3toF-3">
          <mxGeometry relative="1" as="geometry" />
        </mxCell>
        <mxCell id="vAvGuLPLiPGB45BX3toF-6" style="edgeStyle=orthogonalEdgeStyle;rounded=0;orthogonalLoop=1;jettySize=auto;html=1;exitX=0.5;exitY=1;exitDx=0;exitDy=0;entryX=0.5;entryY=1;entryDx=0;entryDy=0;" edge="1" parent="1" source="vAvGuLPLiPGB45BX3toF-1" target="vAvGuLPLiPGB45BX3toF-3">
          <mxGeometry relative="1" as="geometry" />
        </mxCell>
        <mxCell id="vAvGuLPLiPGB45BX3toF-1" value="" style="rounded=1;whiteSpace=wrap;html=1;" vertex="1" parent="1">
          <mxGeometry x="190" y="160" width="120" height="60" as="geometry" />
        </mxCell>
        <mxCell id="vAvGuLPLiPGB45BX3toF-2" value="Text" style="text;html=1;strokeColor=none;fillColor=none;align=center;verticalAlign=middle;whiteSpace=wrap;rounded=0;" vertex="1" parent="1">
          <mxGeometry x="230" y="180" width="40" height="20" as="geometry" />
        </mxCell>
        <mxCell id="vAvGuLPLiPGB45BX3toF-7" style="edgeStyle=orthogonalEdgeStyle;rounded=0;orthogonalLoop=1;jettySize=auto;html=1;exitX=0.5;exitY=0;exitDx=0;exitDy=0;entryX=0.5;entryY=0;entryDx=0;entryDy=0;" edge="1" parent="1" source="vAvGuLPLiPGB45BX3toF-3" target="vAvGuLPLiPGB45BX3toF-1">
          <mxGeometry relative="1" as="geometry" />
        </mxCell>
        <mxCell id="vAvGuLPLiPGB45BX3toF-3" value="" style="rounded=0;whiteSpace=wrap;html=1;" vertex="1" parent="1">
          <mxGeometry x="420" y="160" width="120" height="60" as="geometry" />
        </mxCell>
        <mxCell id="vAvGuLPLiPGB45BX3toF-4" value="Text" style="text;html=1;strokeColor=none;fillColor=none;align=center;verticalAlign=middle;whiteSpace=wrap;rounded=0;" vertex="1" parent="1">
          <mxGeometry x="460" y="180" width="40" height="20" as="geometry" />
        </mxCell>
      </root>
    </mxGraphModel>
  </diagram>
</mxfile>
